<svg width="80" height="80" viewBox="0 0 80 80" fill="none" xmlns="http://www.w3.org/2000/svg">
<path d="M80 40C80 62.0914 62.0914 80 40 80C17.9086 80 0 62.0914 0 40C0 17.9086 17.9086 0 40 0C62.0914 0 80 17.9086 80 40Z" fill="#FFF9CC"/>
<path d="M37.7778 51.1111C37.7778 52.3333 38.7778 53.3333 40 53.3333C41.2222 53.3333 42.2222 52.3333 42.2222 51.1111C42.2222 49.8889 41.2222 48.8889 40 48.8889C38.7778 48.8889 37.7778 49.8889 37.7778 51.1111ZM37.7778 20V28.8889H42.2222V24.6222C49.7556 25.7111 55.5556 32.1556 55.5556 40C55.5556 48.6 48.6 55.5556 40 55.5556C31.4 55.5556 24.4444 48.6 24.4444 40C24.4444 36.2667 25.7556 32.8444 27.9556 30.1778L40 42.2222L43.1333 39.0889L28.0222 23.9778V24.0222C23.1556 27.6667 20 33.4444 20 40C20 51.0444 28.9333 60 40 60C51.0444 60 60 51.0444 60 40C60 28.9556 51.0444 20 40 20H37.7778ZM53.3333 40C53.3333 38.7778 52.3333 37.7778 51.1111 37.7778C49.8889 37.7778 48.8889 38.7778 48.8889 40C48.8889 41.2222 49.8889 42.2222 51.1111 42.2222C52.3333 42.2222 53.3333 41.2222 53.3333 40ZM26.6667 40C26.6667 41.2222 27.6667 42.2222 28.8889 42.2222C30.1111 42.2222 31.1111 41.2222 31.1111 40C31.1111 38.7778 30.1111 37.7778 28.8889 37.7778C27.6667 37.7778 26.6667 38.7778 26.6667 40Z" fill="#DCB56D"/>
</svg>
