<svg width="80" height="80" viewBox="0 0 80 80" fill="none" xmlns="http://www.w3.org/2000/svg">
<path d="M80 40C80 62.0914 62.0914 80 40 80C17.9086 80 0 62.0914 0 40C0 17.9086 17.9086 0 40 0C62.0914 0 80 17.9086 80 40Z" fill="#E8FFE4"/>
<path d="M34.8691 20L33.8965 25.0469C32.2612 25.6685 30.7596 26.5399 29.4439 27.6289L24.6347 25.957L20 34.043L23.8519 37.418C23.7039 38.3344 23.6272 39.1837 23.6272 40C23.6272 40.8175 23.7062 41.6653 23.8519 42.582V42.5859L20 45.9609L24.6347 54.043L29.44 52.375C30.7559 53.4646 32.2609 54.3311 33.8965 54.9531L34.8691 60H44.1309L45.1035 54.9531C46.7398 54.3311 48.2398 53.4611 49.5561 52.3711L54.3653 54.043L58.9961 45.9609L55.1481 42.582C55.2961 41.6656 55.3728 40.8163 55.3728 40C55.3728 39.1849 55.2957 38.3367 55.1481 37.4219V37.418L59 34.0391L54.3653 25.957L49.56 27.625C48.2441 26.5354 46.7391 25.6689 45.1035 25.0469L44.1309 20H34.8691ZM38.1398 24H40.8602L41.6314 28L43.7007 28.7891C44.9481 29.2629 46.0687 29.9135 47.0411 30.7188L48.754 32.1328L52.5672 30.8125L53.9274 33.1836L50.8815 35.8555L51.2302 38.0547V38.0586C51.3516 38.8085 51.4046 39.4375 51.4046 40C51.4046 40.5625 51.3516 41.1914 51.2302 41.9414L50.8776 44.1406L53.9235 46.8125L52.5633 49.1875L48.754 47.8633L47.0373 49.2812C46.0648 50.0865 44.9481 50.7371 43.7007 51.2109H43.6968L41.6275 52L40.8563 56H38.1398L37.3686 52L35.2993 51.2109C34.0519 50.7371 32.9313 50.0865 31.9589 49.2812L30.246 47.8672L26.4328 49.1875L25.0726 46.8164L28.1224 44.1406L27.7698 41.9492V41.9453C27.6502 41.1922 27.5954 40.5613 27.5954 40C27.5954 39.4375 27.6484 38.8086 27.7698 38.0586L28.1224 35.8594L25.0726 33.1875L26.4328 30.8125L30.246 32.1367L31.9589 30.7188C32.9313 29.9135 34.0519 29.2629 35.2993 28.7891L37.3686 28L38.1398 24ZM39.5 32C35.1419 32 31.5636 35.607 31.5636 40C31.5636 44.393 35.1419 48 39.5 48C43.8581 48 47.4364 44.393 47.4364 40C47.4364 35.607 43.8581 32 39.5 32ZM39.5 36C41.7053 36 43.4682 37.777 43.4682 40C43.4682 42.223 41.7053 44 39.5 44C37.2947 44 35.5318 42.223 35.5318 40C35.5318 37.777 37.2947 36 39.5 36Z" fill="#41851C"/>
</svg>
