<svg width="30" height="30" viewBox="0 0 30 30" fill="none" xmlns="http://www.w3.org/2000/svg">
<path fill-rule="evenodd" clip-rule="evenodd" d="M7.26427 1.68652C5.78473 1.68652 4.36576 2.27412 3.31937 3.32011C2.27298 4.3661 1.68483 5.78484 1.68427 7.26438V22.1444C1.68427 23.6243 2.27216 25.0436 3.31861 26.09C4.36506 27.1365 5.78436 27.7244 7.26427 27.7244H22.1443C23.6238 27.7238 25.0425 27.1357 26.0885 26.0893C27.1345 25.0429 27.7221 23.6239 27.7221 22.1444V7.26438C27.7216 5.78522 27.1337 4.3668 26.0878 3.32087C25.0418 2.27494 23.6234 1.68709 22.1443 1.68652H7.26427ZM23.7493 7.27295C23.7493 7.69919 23.5799 8.10798 23.2785 8.40937C22.9771 8.71077 22.5684 8.8801 22.1421 8.8801C21.7159 8.8801 21.3071 8.71077 21.0057 8.40937C20.7043 8.10798 20.535 7.69919 20.535 7.27295C20.535 6.84671 20.7043 6.43793 21.0057 6.13653C21.3071 5.83513 21.7159 5.66581 22.1421 5.66581C22.5684 5.66581 22.9771 5.83513 23.2785 6.13653C23.5799 6.43793 23.7493 6.84671 23.7493 7.27295ZM14.7064 10.2472C13.5243 10.2472 12.3906 10.7168 11.5547 11.5527C10.7189 12.3886 10.2493 13.5223 10.2493 14.7044C10.2493 15.8865 10.7189 17.0202 11.5547 17.8561C12.3906 18.6919 13.5243 19.1615 14.7064 19.1615C15.8885 19.1615 17.0222 18.6919 17.8581 17.8561C18.694 17.0202 19.1635 15.8865 19.1635 14.7044C19.1635 13.5223 18.694 12.3886 17.8581 11.5527C17.0222 10.7168 15.8885 10.2472 14.7064 10.2472ZM8.10427 14.7044C8.10427 12.954 8.79962 11.2752 10.0374 10.0375C11.2751 8.79974 12.9538 8.10438 14.7043 8.10438C16.4547 8.10438 18.1334 8.79974 19.3712 10.0375C20.6089 11.2752 21.3043 12.954 21.3043 14.7044C21.3043 16.4548 20.6089 18.1335 19.3712 19.3713C18.1334 20.609 16.4547 21.3044 14.7043 21.3044C12.9538 21.3044 11.2751 20.609 10.0374 19.3713C8.79962 18.1335 8.10427 16.4548 8.10427 14.7044Z" fill="white"/>
</svg>
